<?xml version="1.0" encoding="utf-8"?>
<!-- Generator: Adobe Illustrator 19.1.0, SVG Export Plug-In . SVG Version: 6.00 Build 0)  -->
<svg version="1.1" id="Layer_1" xmlns="http://www.w3.org/2000/svg" xmlns:xlink="http://www.w3.org/1999/xlink" x="0px" y="0px"
	 viewBox="-349 269.7 260 23.3" style="enable-background:new -349 269.7 260 23.3;" xml:space="preserve">
<style type="text/css">
	.st0{fill:#D2BB87;}
	.st1{fill:none;stroke:#D2BB87;stroke-linecap:round;stroke-miterlimit:10;}
</style>
<g id="decoration_4_1_">
	<g>
		<path class="st0" d="M-286.5,285.6l-62.5-0.5l62.5-0.5c0.3,0,0.5,0.2,0.5,0.5C-286,285.3-286.2,285.6-286.5,285.6L-286.5,285.6z"
			/>
	</g>
	<g>
		<path class="st0" d="M-151.7,284.6l62.5,0.5l-62.5,0.5c-0.3,0-0.5-0.2-0.5-0.5C-152.2,284.8-152,284.6-151.7,284.6L-151.7,284.6z"
			/>
	</g>
	<path class="st1" d="M-286.5,285.1h36.8c0.4,0,0.9-0.2,1.2-0.5l4.8-4.8c0.6-0.6,1.7-0.6,2.3,0l12.3,12.3c0.6,0.6,1.7,0.6,2.3,0
		l6.1-6.1c0.6-0.6,0.6-1.7,0-2.3l-3.9-3.9c-0.6-0.6-1.7-0.6-2.3,0l-3.7,3.7c-0.6,0.6-0.6,1.7,0,2.3l1.1,1.1c0.6,0.6,1.7,0.6,2.3,0
		l1.2-1.2c0.6-0.6,0.6-1.7,0-2.3l-3.9-3.9l-2.7-2.7c-0.6-0.6-1.7-0.6-2.3,0l-4.8,4.8l-2.7,2.7c-0.6,0.6-0.6,1.7,0,2.3l0.6,0.6
		c0.6,0.6,1.7,0.6,2.3,0l11.5-11.6l5-5c0.6-0.6,1.7-0.6,2.3,0l4.5,4.5c0.6,0.6,0.6,1.7,0,2.3l-2.7,2.7l-2.7-2.7
		c-0.6-0.6-0.6-1.7,0-2.3l4.5-4.5c0.6-0.6,1.7-0.6,2.3,0l5,5l11.5,11.5c0.6,0.6,1.7,0.6,2.3,0l0.6-0.6c0.7-0.6,0.7-1.7,0-2.3
		l-2.7-2.7l-4.8-4.8c-0.6-0.6-1.7-0.6-2.3,0l-2.7,2.7l-3.9,3.9c-0.6,0.6-0.6,1.7,0,2.3l1.2,1.2c0.6,0.6,1.7,0.6,2.3,0l1.1-1.1
		c0.6-0.6,0.6-1.7,0-2.3l-3.7-3.7c-0.6-0.6-1.7-0.6-2.3,0l-3.9,3.9c-0.6,0.6-0.6,1.7,0,2.3l6.1,6.1c0.6,0.6,1.7,0.6,2.3,0l12.2-12.3
		c0.6-0.6,1.7-0.6,2.3,0l4.8,4.8c0.3,0.3,0.7,0.5,1.2,0.5h36.8"/>
</g>
</svg>
