<?xml version="1.0" encoding="utf-8"?>
<!-- Generator: Adobe Illustrator 18.1.1, SVG Export Plug-In . SVG Version: 6.00 Build 0)  -->
<svg version="1.1" id="Layer_1" xmlns="http://www.w3.org/2000/svg" xmlns:xlink="http://www.w3.org/1999/xlink" x="0px" y="0px"
	 viewBox="-413 290.3 15 16" enable-background="new -413 290.3 15 16" xml:space="preserve">
<g>
	<path fill="#444444" d="M-405.6,304.8c-1.3,0-2.7,0-4,0c-1.3,0-2.4-0.9-2.7-2.2c0-0.2-0.1-0.4-0.1-0.6c0-2.7,0-5.3,0-8
		c0-1.3,0.9-2.4,2.2-2.7c0.2,0,0.4-0.1,0.6-0.1c2.7,0,5.3,0,8,0c1.6,0,2.8,1.2,2.8,2.8c0,2.7,0,5.3,0,8c0,1.6-1.2,2.8-2.8,2.8
		C-402.9,304.8-404.3,304.8-405.6,304.8z M-401.6,297c0.3,1.3,0.1,2.4-0.7,3.5c-0.8,1-1.8,1.6-3.2,1.7c-1.2,0-2.2-0.3-3-1.2
		c-1.1-1.1-1.4-2.4-1.1-4c-0.4,0-0.8,0-1.2,0c0,0.1,0,0.1,0,0.2c0,1.7,0,3.4,0,5.1c0,0.6,0.4,0.9,0.9,0.9c2.8,0,5.7,0,8.5,0
		c0.6,0,0.9-0.3,0.9-0.9c0-1.7,0-3.4,0-5.1c0-0.1,0-0.1,0-0.2C-400.8,297-401.2,297-401.6,297z M-403,298c0-1.4-1.2-2.6-2.6-2.6
		c-1.4,0-2.6,1.2-2.6,2.6c0,1.4,1.2,2.6,2.6,2.6C-404.1,300.6-403,299.4-403,298z M-400.4,294.2c0-0.2,0-0.3,0-0.5
		c0-0.5-0.4-0.8-0.8-0.8c-0.3,0-0.6,0-0.9,0c-0.5,0-0.8,0.4-0.8,0.8c0,0.3,0,0.6,0,0.9c0,0.4,0.4,0.8,0.8,0.8c0.3,0,0.6,0,1,0
		c0.4,0,0.8-0.4,0.8-0.8C-400.4,294.5-400.4,294.3-400.4,294.2z"/>
</g>
</svg>
